<svg xmlns="http://www.w3.org/2000/svg" viewBox="0 0 420 240" role="img" aria-label="CRM pipeline overlay card"><rect width="420" height="240" fill="#F6F7F9"/><rect x="10" y="10" width="400" height="220" rx="16" fill="#FFFFFF" stroke="#D9DEE8"/><text x="30" y="44" fill="#F25A2B" font-family="Inter, Arial, sans-serif" font-size="11" font-weight="700" letter-spacing="2">CRM PIPELINE</text><text x="390" y="44" text-anchor="end" fill="#5A6473" font-family="Inter, Arial, sans-serif" font-size="10" letter-spacing="1.4">LIVE STATUS</text><rect x="30" y="56" width="360" height="1" fill="#D9DEE8"/><rect x="30" y="72" width="78" height="130" rx="10" fill="#FBFCFE" stroke="#D9DEE8"/><text x="40" y="90" fill="#5A6473" font-family="Inter, Arial, sans-serif" font-size="8" font-weight="700" letter-spacing="1.1">LEAD</text><rect x="38" y="100" width="62" height="22" rx="6" fill="#FFFFFF" stroke="#D9DEE8"/><rect x="44" y="108" width="36" height="6" rx="3" fill="#162A4F"/><rect x="38" y="130" width="62" height="22" rx="6" fill="#FFFFFF" stroke="#D9DEE8"/><rect x="44" y="138" width="36" height="6" rx="3" fill="#6A7383"/><rect x="38" y="160" width="62" height="22" rx="6" fill="#FFFFFF" stroke="#D9DEE8"/><rect x="44" y="168" width="36" height="6" rx="3" fill="#6A7383"/><rect x="120" y="72" width="78" height="130" rx="10" fill="#FBFCFE" stroke="#D9DEE8"/><text x="130" y="90" fill="#5A6473" font-family="Inter, Arial, sans-serif" font-size="8" font-weight="700" letter-spacing="1.1">QUALIFIED</text><rect x="128" y="100" width="62" height="22" rx="6" fill="#FFFFFF" stroke="#D9DEE8"/><rect x="134" y="108" width="36" height="6" rx="3" fill="#162A4F"/><rect x="128" y="130" width="62" height="22" rx="6" fill="#FFFFFF" stroke="#D9DEE8"/><rect x="134" y="138" width="36" height="6" rx="3" fill="#6A7383"/><rect x="128" y="160" width="62" height="22" rx="6" fill="#FFFFFF" stroke="#D9DEE8"/><rect x="134" y="168" width="36" height="6" rx="3" fill="#6A7383"/><rect x="210" y="72" width="78" height="130" rx="10" fill="#FBFCFE" stroke="#D9DEE8"/><text x="220" y="90" fill="#5A6473" font-family="Inter, Arial, sans-serif" font-size="8" font-weight="700" letter-spacing="1.1">PROPOSAL</text><rect x="218" y="100" width="62" height="22" rx="6" fill="#FFFFFF" stroke="#D9DEE8"/><rect x="224" y="108" width="36" height="6" rx="3" fill="#162A4F"/><rect x="218" y="130" width="62" height="22" rx="6" fill="#FFFFFF" stroke="#D9DEE8"/><rect x="224" y="138" width="36" height="6" rx="3" fill="#6A7383"/><rect x="218" y="160" width="62" height="22" rx="6" fill="#FFFFFF" stroke="#D9DEE8"/><rect x="224" y="168" width="36" height="6" rx="3" fill="#6A7383"/><rect x="300" y="72" width="78" height="130" rx="10" fill="#FBFCFE" stroke="#D9DEE8"/><text x="310" y="90" fill="#5A6473" font-family="Inter, Arial, sans-serif" font-size="8" font-weight="700" letter-spacing="1.1">WON</text><rect x="308" y="100" width="62" height="22" rx="6" fill="#FFFFFF" stroke="#D9DEE8"/><rect x="314" y="108" width="36" height="6" rx="3" fill="#162A4F"/><rect x="308" y="130" width="62" height="22" rx="6" fill="#FFFFFF" stroke="#D9DEE8"/><rect x="314" y="138" width="36" height="6" rx="3" fill="#6A7383"/><rect x="308" y="160" width="62" height="22" rx="6" fill="#FFFFFF" stroke="#D9DEE8"/><rect x="314" y="168" width="36" height="6" rx="3" fill="#6A7383"/><rect x="30" y="208" width="240" height="8" rx="4" fill="#FFEAE1"/><rect x="30" y="208" width="172" height="8" rx="4" fill="#F25A2B"/><circle cx="328" cy="212" r="8" fill="#16A34A"/><text x="344" y="216" fill="#1C1F26" font-family="Inter, Arial, sans-serif" font-size="10" font-weight="700">Automation Healthy</text></svg>