<svg xmlns="http://www.w3.org/2000/svg" viewBox="0 0 1280 800" role="img" aria-label="Hero desktop website mockup">
  <rect width="1280" height="800" fill="#F6F7F9"/>
  <rect x="80" y="70" width="1120" height="660" rx="10" fill="#FFFFFF" stroke="#E5E7EB"/>
  <rect x="120" y="110" width="1040" height="58" rx="8" fill="#F9FAFB" stroke="#E5E7EB"/>
  <rect x="148" y="130" width="120" height="18" fill="#162A4F"/>
  <rect x="870" y="130" width="70" height="12" fill="#6B7280"/>
  <rect x="958" y="130" width="70" height="12" fill="#6B7280"/>
  <rect x="1046" y="124" width="94" height="24" rx="6" fill="#162A4F"/>
  <rect x="140" y="220" width="530" height="46" fill="#1C1F26"/>
  <rect x="140" y="286" width="470" height="20" fill="#4B5563"/>
  <rect x="140" y="318" width="430" height="20" fill="#4B5563"/>
  <rect x="140" y="370" width="160" height="44" rx="6" fill="#162A4F"/>
  <rect x="316" y="370" width="160" height="44" rx="6" fill="#FFFFFF" stroke="#162A4F"/>
  <rect x="720" y="220" width="420" height="280" rx="8" fill="#F6F7F9" stroke="#E5E7EB"/>
  <rect x="720" y="528" width="420" height="160" rx="8" fill="#FFFFFF" stroke="#E5E7EB"/>
  <rect x="754" y="564" width="250" height="16" fill="#1C1F26"/>
  <rect x="754" y="592" width="330" height="12" fill="#6B7280"/>
</svg>
