<svg xmlns="http://www.w3.org/2000/svg" viewBox="0 0 420 860" role="img" aria-label="AVD mobile website and CRM preview"><rect width="420" height="860" fill="#F6F7F9"/><rect x="40" y="20" width="340" height="820" rx="38" fill="#FFFFFF" stroke="#D9DEE8"/><rect x="165" y="32" width="90" height="8" rx="4" fill="#D7DDE8"/><rect x="60" y="52" width="300" height="764" rx="20" fill="#FBFCFE" stroke="#D9DEE8"/><rect x="88" y="88" width="244" height="42" rx="8" fill="#F9FAFC" stroke="#D9DEE8"/><rect x="102" y="104" width="92" height="10" rx="5" fill="#F25A2B"/><rect x="88" y="162" width="220" height="24" rx="6" fill="#1C1F26"/><rect x="88" y="198" width="196" height="12" rx="6" fill="#5A6473"/><rect x="88" y="220" width="170" height="12" rx="6" fill="#5A6473"/><rect x="88" y="254" width="132" height="38" rx="19" fill="#F25A2B"/><rect x="228" y="254" width="108" height="38" rx="19" fill="#FFFFFF" stroke="#1C1F26"/><text x="154" y="278" text-anchor="middle" fill="#1C1F26" font-family="Inter, Arial, sans-serif" font-size="9.5" font-weight="700" letter-spacing="1.4">START</text><text x="282" y="278" text-anchor="middle" fill="#1C1F26" font-family="Inter, Arial, sans-serif" font-size="9.5" font-weight="700" letter-spacing="1.4">WORK</text><rect x="88" y="318" width="244" height="214" rx="12" fill="#FBFCFE" stroke="#D9DEE8"/><text x="104" y="344" fill="#F25A2B" font-family="Inter, Arial, sans-serif" font-size="9" font-weight="700" letter-spacing="1.4">CRM SNAPSHOT</text><rect x="104" y="360" width="212" height="1" fill="#D9DEE8"/><rect x="104" y="376" width="212" height="40" rx="8" fill="#FFFFFF" stroke="#D9DEE8"/><rect x="118" y="388" width="86" height="8" rx="4" fill="#162A4F"/><rect x="118" y="400" width="132" height="6" rx="3" fill="#6C7688"/><circle cx="290" cy="396" r="6" fill="#16A34A"/><rect x="104" y="426" width="212" height="40" rx="8" fill="#FFFFFF" stroke="#D9DEE8"/><rect x="118" y="438" width="86" height="8" rx="4" fill="#162A4F"/><rect x="118" y="450" width="132" height="6" rx="3" fill="#6C7688"/><circle cx="290" cy="446" r="6" fill="#F25A2B"/><rect x="104" y="476" width="212" height="40" rx="8" fill="#FFFFFF" stroke="#D9DEE8"/><rect x="118" y="488" width="86" height="8" rx="4" fill="#162A4F"/><rect x="118" y="500" width="132" height="6" rx="3" fill="#6C7688"/><circle cx="290" cy="496" r="6" fill="#F25A2B"/><rect x="88" y="556" width="116" height="66" rx="10" fill="#FFEAE1" stroke="#D9DEE8"/><rect x="216" y="556" width="116" height="66" rx="10" fill="#E8EDF7" stroke="#D9DEE8"/><text x="104" y="578" fill="#F25A2B" font-family="Inter, Arial, sans-serif" font-size="8" font-weight="700" letter-spacing="1.2">LEADS</text><text x="104" y="604" fill="#1C1F26" font-family="Inter, Arial, sans-serif" font-size="22" font-weight="700">42</text><text x="232" y="578" fill="#162A4F" font-family="Inter, Arial, sans-serif" font-size="8" font-weight="700" letter-spacing="1.2">CONVERSION</text><text x="232" y="604" fill="#1C1F26" font-family="Inter, Arial, sans-serif" font-size="22" font-weight="700">18%</text></svg>