<svg xmlns="http://www.w3.org/2000/svg" viewBox="0 0 1280 800" role="img" aria-label="AVD desktop website and systems preview"><rect width="1280" height="800" fill="#F6F7F9"/><rect x="60" y="54" width="1160" height="690" rx="14" fill="#FFFFFF" stroke="#D9DEE8"/><rect x="61" y="55" width="1158" height="56" rx="13" fill="#F9FAFC" stroke="#D9DEE8"/><circle cx="88" cy="82" r="7" fill="#F25A2B"/><circle cx="110" cy="82" r="7" fill="#162A4F"/><circle cx="132" cy="82" r="7" fill="#D1D7E3"/><text x="1200" y="87" text-anchor="end" fill="#5A6473" font-family="Inter, Arial, sans-serif" font-size="10" letter-spacing="2">AVD SYSTEM VIEW</text><rect x="120" y="148" width="128" height="12" rx="6" fill="#FFEAE1"/><rect x="120" y="190" width="420" height="52" rx="8" fill="#1C1F26"/><rect x="120" y="254" width="390" height="18" rx="6" fill="#5A6473"/><rect x="120" y="282" width="350" height="18" rx="6" fill="#5A6473"/><rect x="120" y="328" width="170" height="44" rx="22" fill="#F25A2B"/><rect x="304" y="328" width="152" height="44" rx="22" fill="#FFFFFF" stroke="#1C1F26"/><text x="205" y="355" text-anchor="middle" fill="#1C1F26" font-family="Inter, Arial, sans-serif" font-size="13" font-weight="700" letter-spacing="1.5">START PROJECT</text><text x="380" y="355" text-anchor="middle" fill="#1C1F26" font-family="Inter, Arial, sans-serif" font-size="13" font-weight="700" letter-spacing="1.5">VIEW WORK</text><rect x="620" y="146" width="530" height="270" rx="12" fill="#FBFCFE" stroke="#D9DEE8"/><text x="648" y="178" fill="#F25A2B" font-family="Inter, Arial, sans-serif" font-size="11" font-weight="700" letter-spacing="2">CRM STATUS</text><rect x="648" y="194" width="470" height="1" fill="#D9DEE8"/><rect x="648" y="210" width="108" height="188" rx="10" fill="#FCECE7" stroke="#D9DEE8"/><text x="658" y="228" fill="#5A6473" font-family="Inter, Arial, sans-serif" font-size="9" font-weight="700" letter-spacing="1.2">LEAD</text><rect x="656" y="246" width="92" height="38" rx="7" fill="#FFFFFF" stroke="#D9DEE8"/><text x="662" y="268" fill="#1C1F26" font-family="Inter, Arial, sans-serif" font-size="8.6">Medline Labs</text><rect x="656" y="292" width="92" height="38" rx="7" fill="#FFFFFF" stroke="#D9DEE8"/><text x="662" y="314" fill="#1C1F26" font-family="Inter, Arial, sans-serif" font-size="8.6">Oakview Group</text><rect x="656" y="338" width="92" height="38" rx="7" fill="#FFFFFF" stroke="#D9DEE8"/><text x="662" y="360" fill="#1C1F26" font-family="Inter, Arial, sans-serif" font-size="8.6">Cobalt Fin</text><rect x="768" y="210" width="108" height="188" rx="10" fill="#FDF5E5" stroke="#D9DEE8"/><text x="778" y="228" fill="#5A6473" font-family="Inter, Arial, sans-serif" font-size="9" font-weight="700" letter-spacing="1.2">QUALIFIED</text><rect x="776" y="246" width="92" height="38" rx="7" fill="#FFFFFF" stroke="#D9DEE8"/><text x="782" y="268" fill="#1C1F26" font-family="Inter, Arial, sans-serif" font-size="8.6">Haven Health</text><rect x="776" y="292" width="92" height="38" rx="7" fill="#FFFFFF" stroke="#D9DEE8"/><text x="782" y="314" fill="#1C1F26" font-family="Inter, Arial, sans-serif" font-size="8.6">Northstar</text><rect x="776" y="338" width="92" height="38" rx="7" fill="#FFFFFF" stroke="#D9DEE8"/><text x="782" y="360" fill="#1C1F26" font-family="Inter, Arial, sans-serif" font-size="8.6">Summit Edu</text><rect x="888" y="210" width="108" height="188" rx="10" fill="#EAF0FB" stroke="#D9DEE8"/><text x="898" y="228" fill="#5A6473" font-family="Inter, Arial, sans-serif" font-size="9" font-weight="700" letter-spacing="1.2">PROPOSAL</text><rect x="896" y="246" width="92" height="38" rx="7" fill="#FFFFFF" stroke="#D9DEE8"/><text x="902" y="268" fill="#1C1F26" font-family="Inter, Arial, sans-serif" font-size="8.6">Riverton</text><rect x="896" y="292" width="92" height="38" rx="7" fill="#FFFFFF" stroke="#D9DEE8"/><text x="902" y="314" fill="#1C1F26" font-family="Inter, Arial, sans-serif" font-size="8.6">Atlas</text><rect x="896" y="338" width="92" height="38" rx="7" fill="#FFFFFF" stroke="#D9DEE8"/><text x="902" y="360" fill="#1C1F26" font-family="Inter, Arial, sans-serif" font-size="8.6">Aurelia</text><rect x="1008" y="210" width="108" height="188" rx="10" fill="#E8F8EE" stroke="#D9DEE8"/><text x="1018" y="228" fill="#5A6473" font-family="Inter, Arial, sans-serif" font-size="9" font-weight="700" letter-spacing="1.2">WON</text><rect x="1016" y="246" width="92" height="38" rx="7" fill="#FFFFFF" stroke="#D9DEE8"/><text x="1022" y="268" fill="#1C1F26" font-family="Inter, Arial, sans-serif" font-size="8.6">Pioneer Care</text><rect x="1016" y="292" width="92" height="38" rx="7" fill="#FFFFFF" stroke="#D9DEE8"/><text x="1022" y="314" fill="#1C1F26" font-family="Inter, Arial, sans-serif" font-size="8.6">Brisk Retail</text><rect x="1016" y="338" width="92" height="38" rx="7" fill="#FFFFFF" stroke="#D9DEE8"/><text x="1022" y="360" fill="#1C1F26" font-family="Inter, Arial, sans-serif" font-size="8.6">Apex Trust</text><rect x="120" y="430" width="1030" height="254" rx="12" fill="#FBFCFE" stroke="#D9DEE8"/><text x="144" y="462" fill="#F25A2B" font-family="Inter, Arial, sans-serif" font-size="11" font-weight="700" letter-spacing="1.8">BUILD METRICS</text><rect x="144" y="486" width="312" height="168" rx="10" fill="#FFFFFF" stroke="#D9DEE8"/><text x="164" y="516" fill="#5A6473" font-family="Inter, Arial, sans-serif" font-size="10" font-weight="700" letter-spacing="1.2">PAGESPEED</text><text x="164" y="556" fill="#1C1F26" font-family="Inter, Arial, sans-serif" font-size="34" font-weight="700">96</text><rect x="164" y="576" width="180" height="10" rx="5" fill="#162A4F"/><rect x="164" y="594" width="240" height="8" rx="4" fill="#6C7688"/><rect x="476" y="486" width="312" height="168" rx="10" fill="#FFFFFF" stroke="#D9DEE8"/><text x="496" y="516" fill="#5A6473" font-family="Inter, Arial, sans-serif" font-size="10" font-weight="700" letter-spacing="1.2">CORE WEB VITALS</text><text x="496" y="556" fill="#1C1F26" font-family="Inter, Arial, sans-serif" font-size="34" font-weight="700">Pass</text><rect x="496" y="576" width="160" height="10" rx="5" fill="#162A4F"/><rect x="496" y="594" width="222" height="8" rx="4" fill="#6C7688"/><rect x="808" y="486" width="312" height="168" rx="10" fill="#FFFFFF" stroke="#D9DEE8"/><text x="828" y="516" fill="#5A6473" font-family="Inter, Arial, sans-serif" font-size="10" font-weight="700" letter-spacing="1.2">LEAD ROUTE ACCURACY</text><text x="828" y="556" fill="#1C1F26" font-family="Inter, Arial, sans-serif" font-size="34" font-weight="700">99%</text><rect x="828" y="576" width="140" height="10" rx="5" fill="#162A4F"/><rect x="828" y="594" width="204" height="8" rx="4" fill="#6C7688"/></svg>