<svg xmlns="http://www.w3.org/2000/svg" viewBox="0 0 1200 620" role="img" aria-label="CRM pipeline preview with lead stages"><rect width="1200" height="620" fill="#F6F7F9"/><rect x="32" y="32" width="1136" height="556" rx="16" fill="#FFFFFF" stroke="#D9DEE8"/><rect x="32" y="32" width="1136" height="66" rx="16" fill="#F9FAFC" stroke="#D9DEE8"/><text x="62" y="72" fill="#F25A2B" font-family="Inter, Arial, sans-serif" font-size="12" font-weight="700" letter-spacing="2">CRM ARCHITECTURE</text><text x="1140" y="72" text-anchor="end" fill="#5A6473" font-family="Inter, Arial, sans-serif" font-size="10" letter-spacing="1.4">PIPELINE + OWNER + STATUS</text><rect x="58" y="122" width="252" height="434" rx="12" fill="#FDF3EF" stroke="#D9DEE8"/><text x="74" y="148" fill="#1C1F26" font-family="Inter, Arial, sans-serif" font-size="12" font-weight="700" letter-spacing="1">NEW LEADS</text><rect x="230" y="136" width="58" height="20" rx="10" fill="#FFFFFF" stroke="#D9DEE8"/><text x="259" y="150" text-anchor="middle" fill="#5A6473" font-family="Inter, Arial, sans-serif" font-size="10" font-weight="700">6</text><rect x="72" y="172" width="224" height="78" rx="9" fill="#FFFFFF" stroke="#D9DEE8"/><rect x="84" y="186" width="120" height="9" rx="4.5" fill="#162A4F"/><rect x="84" y="202" width="170" height="7" rx="3.5" fill="#6A7383"/><rect x="84" y="215" width="148" height="7" rx="3.5" fill="#6A7383"/><circle cx="262" cy="194" r="6" fill="#F25A2B"/><rect x="72" y="264" width="224" height="78" rx="9" fill="#FFFFFF" stroke="#D9DEE8"/><rect x="84" y="278" width="120" height="9" rx="4.5" fill="#6A7383"/><rect x="84" y="294" width="170" height="7" rx="3.5" fill="#6A7383"/><rect x="84" y="307" width="148" height="7" rx="3.5" fill="#6A7383"/><circle cx="262" cy="286" r="6" fill="#F25A2B"/><rect x="72" y="356" width="224" height="78" rx="9" fill="#FFFFFF" stroke="#D9DEE8"/><rect x="84" y="370" width="120" height="9" rx="4.5" fill="#6A7383"/><rect x="84" y="386" width="170" height="7" rx="3.5" fill="#6A7383"/><rect x="84" y="399" width="148" height="7" rx="3.5" fill="#6A7383"/><circle cx="262" cy="378" r="6" fill="#F25A2B"/><rect x="72" y="448" width="224" height="78" rx="9" fill="#FFFFFF" stroke="#D9DEE8"/><rect x="84" y="462" width="120" height="9" rx="4.5" fill="#6A7383"/><rect x="84" y="478" width="170" height="7" rx="3.5" fill="#6A7383"/><rect x="84" y="491" width="148" height="7" rx="3.5" fill="#6A7383"/><circle cx="262" cy="470" r="6" fill="#F25A2B"/><rect x="332" y="122" width="252" height="434" rx="12" fill="#FFF6E9" stroke="#D9DEE8"/><text x="348" y="148" fill="#1C1F26" font-family="Inter, Arial, sans-serif" font-size="12" font-weight="700" letter-spacing="1">QUALIFIED</text><rect x="504" y="136" width="58" height="20" rx="10" fill="#FFFFFF" stroke="#D9DEE8"/><text x="533" y="150" text-anchor="middle" fill="#5A6473" font-family="Inter, Arial, sans-serif" font-size="10" font-weight="700">5</text><rect x="346" y="172" width="224" height="78" rx="9" fill="#FFFFFF" stroke="#D9DEE8"/><rect x="358" y="186" width="120" height="9" rx="4.5" fill="#162A4F"/><rect x="358" y="202" width="170" height="7" rx="3.5" fill="#6A7383"/><rect x="358" y="215" width="148" height="7" rx="3.5" fill="#6A7383"/><circle cx="536" cy="194" r="6" fill="#F25A2B"/><rect x="346" y="264" width="224" height="78" rx="9" fill="#FFFFFF" stroke="#D9DEE8"/><rect x="358" y="278" width="120" height="9" rx="4.5" fill="#6A7383"/><rect x="358" y="294" width="170" height="7" rx="3.5" fill="#6A7383"/><rect x="358" y="307" width="148" height="7" rx="3.5" fill="#6A7383"/><circle cx="536" cy="286" r="6" fill="#F25A2B"/><rect x="346" y="356" width="224" height="78" rx="9" fill="#FFFFFF" stroke="#D9DEE8"/><rect x="358" y="370" width="120" height="9" rx="4.5" fill="#6A7383"/><rect x="358" y="386" width="170" height="7" rx="3.5" fill="#6A7383"/><rect x="358" y="399" width="148" height="7" rx="3.5" fill="#6A7383"/><circle cx="536" cy="378" r="6" fill="#F25A2B"/><rect x="346" y="448" width="224" height="78" rx="9" fill="#FFFFFF" stroke="#D9DEE8"/><rect x="358" y="462" width="120" height="9" rx="4.5" fill="#6A7383"/><rect x="358" y="478" width="170" height="7" rx="3.5" fill="#6A7383"/><rect x="358" y="491" width="148" height="7" rx="3.5" fill="#6A7383"/><circle cx="536" cy="470" r="6" fill="#F25A2B"/><rect x="606" y="122" width="252" height="434" rx="12" fill="#EEF2FB" stroke="#D9DEE8"/><text x="622" y="148" fill="#1C1F26" font-family="Inter, Arial, sans-serif" font-size="12" font-weight="700" letter-spacing="1">PROPOSAL</text><rect x="778" y="136" width="58" height="20" rx="10" fill="#FFFFFF" stroke="#D9DEE8"/><text x="807" y="150" text-anchor="middle" fill="#5A6473" font-family="Inter, Arial, sans-serif" font-size="10" font-weight="700">4</text><rect x="620" y="172" width="224" height="78" rx="9" fill="#FFFFFF" stroke="#D9DEE8"/><rect x="632" y="186" width="120" height="9" rx="4.5" fill="#162A4F"/><rect x="632" y="202" width="170" height="7" rx="3.5" fill="#6A7383"/><rect x="632" y="215" width="148" height="7" rx="3.5" fill="#6A7383"/><circle cx="810" cy="194" r="6" fill="#F25A2B"/><rect x="620" y="264" width="224" height="78" rx="9" fill="#FFFFFF" stroke="#D9DEE8"/><rect x="632" y="278" width="120" height="9" rx="4.5" fill="#6A7383"/><rect x="632" y="294" width="170" height="7" rx="3.5" fill="#6A7383"/><rect x="632" y="307" width="148" height="7" rx="3.5" fill="#6A7383"/><circle cx="810" cy="286" r="6" fill="#F25A2B"/><rect x="620" y="356" width="224" height="78" rx="9" fill="#FFFFFF" stroke="#D9DEE8"/><rect x="632" y="370" width="120" height="9" rx="4.5" fill="#6A7383"/><rect x="632" y="386" width="170" height="7" rx="3.5" fill="#6A7383"/><rect x="632" y="399" width="148" height="7" rx="3.5" fill="#6A7383"/><circle cx="810" cy="378" r="6" fill="#F25A2B"/><rect x="620" y="448" width="224" height="78" rx="9" fill="#FFFFFF" stroke="#D9DEE8"/><rect x="632" y="462" width="120" height="9" rx="4.5" fill="#6A7383"/><rect x="632" y="478" width="170" height="7" rx="3.5" fill="#6A7383"/><rect x="632" y="491" width="148" height="7" rx="3.5" fill="#6A7383"/><circle cx="810" cy="470" r="6" fill="#F25A2B"/><rect x="880" y="122" width="252" height="434" rx="12" fill="#EAF8EF" stroke="#D9DEE8"/><text x="896" y="148" fill="#1C1F26" font-family="Inter, Arial, sans-serif" font-size="12" font-weight="700" letter-spacing="1">WON</text><rect x="1052" y="136" width="58" height="20" rx="10" fill="#FFFFFF" stroke="#D9DEE8"/><text x="1081" y="150" text-anchor="middle" fill="#5A6473" font-family="Inter, Arial, sans-serif" font-size="10" font-weight="700">3</text><rect x="894" y="172" width="224" height="78" rx="9" fill="#FFFFFF" stroke="#D9DEE8"/><rect x="906" y="186" width="120" height="9" rx="4.5" fill="#162A4F"/><rect x="906" y="202" width="170" height="7" rx="3.5" fill="#6A7383"/><rect x="906" y="215" width="148" height="7" rx="3.5" fill="#6A7383"/><circle cx="1084" cy="194" r="6" fill="#16A34A"/><rect x="894" y="264" width="224" height="78" rx="9" fill="#FFFFFF" stroke="#D9DEE8"/><rect x="906" y="278" width="120" height="9" rx="4.5" fill="#6A7383"/><rect x="906" y="294" width="170" height="7" rx="3.5" fill="#6A7383"/><rect x="906" y="307" width="148" height="7" rx="3.5" fill="#6A7383"/><circle cx="1084" cy="286" r="6" fill="#16A34A"/><rect x="894" y="356" width="224" height="78" rx="9" fill="#FFFFFF" stroke="#D9DEE8"/><rect x="906" y="370" width="120" height="9" rx="4.5" fill="#6A7383"/><rect x="906" y="386" width="170" height="7" rx="3.5" fill="#6A7383"/><rect x="906" y="399" width="148" height="7" rx="3.5" fill="#6A7383"/><circle cx="1084" cy="378" r="6" fill="#16A34A"/><rect x="894" y="448" width="224" height="78" rx="9" fill="#FFFFFF" stroke="#D9DEE8"/><rect x="906" y="462" width="120" height="9" rx="4.5" fill="#6A7383"/><rect x="906" y="478" width="170" height="7" rx="3.5" fill="#6A7383"/><rect x="906" y="491" width="148" height="7" rx="3.5" fill="#6A7383"/><circle cx="1084" cy="470" r="6" fill="#16A34A"/></svg>