<svg xmlns="http://www.w3.org/2000/svg" viewBox="0 0 1280 520" role="img" aria-label="Lead form to CRM to email to internal notification workflow"><rect width="1280" height="520" fill="#F6F7F9"/><rect x="36" y="34" width="1208" height="452" rx="16" fill="#FFFFFF" stroke="#D9DEE8"/><text x="72" y="78" fill="#F25A2B" font-family="Inter, Arial, sans-serif" font-size="13" font-weight="700" letter-spacing="2">SYSTEM FLOW</text><text x="1210" y="78" text-anchor="end" fill="#5A6473" font-family="Inter, Arial, sans-serif" font-size="11" letter-spacing="1.5">LEAD FORM -> CRM -> EMAIL -> INTERNAL ALERT</text><rect x="86" y="150" width="240" height="210" rx="14" fill="#FBFCFE" stroke="#D9DEE8"/><circle cx="124" cy="186" r="14" fill="#F25A2B"/><text x="150" y="192" fill="#1C1F26" font-family="Inter, Arial, sans-serif" font-size="20" font-weight="700">Lead Form</text><text x="110" y="230" fill="#5A6473" font-family="Inter, Arial, sans-serif" font-size="12">Website capture and qualification</text><rect x="110" y="258" width="120" height="10" rx="5" fill="#F25A2B"/><rect x="110" y="278" width="168" height="8" rx="4" fill="#6A7383"/><rect x="110" y="294" width="152" height="8" rx="4" fill="#6A7383"/><line x1="334" y1="256" x2="368" y2="256" stroke="#D9DEE8" stroke-width="4"/><polygon points="368,248 384,256 368,264" fill="#F25A2B"/><rect x="372" y="150" width="240" height="210" rx="14" fill="#FBFCFE" stroke="#D9DEE8"/><circle cx="410" cy="186" r="14" fill="#162A4F"/><text x="436" y="192" fill="#1C1F26" font-family="Inter, Arial, sans-serif" font-size="20" font-weight="700">CRM</text><text x="396" y="230" fill="#5A6473" font-family="Inter, Arial, sans-serif" font-size="12">Pipeline stage + owner assignment</text><rect x="396" y="258" width="120" height="10" rx="5" fill="#162A4F"/><rect x="396" y="278" width="168" height="8" rx="4" fill="#6A7383"/><rect x="396" y="294" width="152" height="8" rx="4" fill="#6A7383"/><line x1="620" y1="256" x2="654" y2="256" stroke="#D9DEE8" stroke-width="4"/><polygon points="654,248 670,256 654,264" fill="#F25A2B"/><rect x="658" y="150" width="240" height="210" rx="14" fill="#FBFCFE" stroke="#D9DEE8"/><circle cx="696" cy="186" r="14" fill="#374151"/><text x="722" y="192" fill="#1C1F26" font-family="Inter, Arial, sans-serif" font-size="20" font-weight="700">Email</text><text x="682" y="230" fill="#5A6473" font-family="Inter, Arial, sans-serif" font-size="12">Client confirmation and nurture</text><rect x="682" y="258" width="120" height="10" rx="5" fill="#374151"/><rect x="682" y="278" width="168" height="8" rx="4" fill="#6A7383"/><rect x="682" y="294" width="152" height="8" rx="4" fill="#6A7383"/><line x1="906" y1="256" x2="940" y2="256" stroke="#D9DEE8" stroke-width="4"/><polygon points="940,248 956,256 940,264" fill="#F25A2B"/><rect x="944" y="150" width="240" height="210" rx="14" fill="#FBFCFE" stroke="#D9DEE8"/><circle cx="982" cy="186" r="14" fill="#16A34A"/><text x="1008" y="192" fill="#1C1F26" font-family="Inter, Arial, sans-serif" font-size="20" font-weight="700">Internal Notification</text><text x="968" y="230" fill="#5A6473" font-family="Inter, Arial, sans-serif" font-size="12">Ops + sales handoff alert</text><rect x="968" y="258" width="120" height="10" rx="5" fill="#16A34A"/><rect x="968" y="278" width="168" height="8" rx="4" fill="#6A7383"/><rect x="968" y="294" width="152" height="8" rx="4" fill="#6A7383"/></svg>