<svg xmlns="http://www.w3.org/2000/svg" viewBox="0 0 1280 520" role="img" aria-label="Workflow diagram">
  <rect width="1280" height="520" fill="#FFFFFF"/>
  <rect x="80" y="160" width="220" height="120" rx="10" fill="#F6F7F9" stroke="#E5E7EB"/>
  <rect x="380" y="160" width="220" height="120" rx="10" fill="#F6F7F9" stroke="#E5E7EB"/>
  <rect x="680" y="160" width="220" height="120" rx="10" fill="#F6F7F9" stroke="#E5E7EB"/>
  <rect x="980" y="160" width="220" height="120" rx="10" fill="#F6F7F9" stroke="#E5E7EB"/>
  <text x="136" y="225" fill="#162A4F" font-family="Arial, sans-serif" font-size="24">Lead Form</text>
  <text x="464" y="225" fill="#162A4F" font-family="Arial, sans-serif" font-size="24">CRM</text>
  <text x="746" y="225" fill="#162A4F" font-family="Arial, sans-serif" font-size="24">Email</text>
  <text x="1020" y="225" fill="#162A4F" font-family="Arial, sans-serif" font-size="24">Notification</text>
  <line x1="300" y1="220" x2="380" y2="220" stroke="#162A4F" stroke-width="2"/>
  <line x1="600" y1="220" x2="680" y2="220" stroke="#162A4F" stroke-width="2"/>
  <line x1="900" y1="220" x2="980" y2="220" stroke="#162A4F" stroke-width="2"/>
  <polygon points="374,214 380,220 374,226" fill="#162A4F"/>
  <polygon points="674,214 680,220 674,226" fill="#162A4F"/>
  <polygon points="974,214 980,220 974,226" fill="#162A4F"/>
</svg>
