<svg xmlns="http://www.w3.org/2000/svg" viewBox="0 0 1200 760" role="img" aria-label="EDUCATION project mock screenshot"><rect width="1200" height="760" fill="#F6F7F9"/><rect x="52" y="50" width="1096" height="660" rx="14" fill="#FFFFFF" stroke="#D9DEE8"/><rect x="53" y="51" width="1094" height="56" rx="13" fill="#F9FAFC" stroke="#D9DEE8"/><circle cx="80" cy="78" r="7" fill="#F25A2B"/><circle cx="102" cy="78" r="7" fill="#162A4F"/><circle cx="124" cy="78" r="7" fill="#D1D7E3"/><text x="1128" y="83" text-anchor="end" fill="#5A6473" font-family="Inter, Arial, sans-serif" font-size="10" letter-spacing="2">9 WEEKS</text><text x="96" y="98" fill="#F25A2B" font-family="Inter, Arial, sans-serif" font-size="11" font-weight="700" letter-spacing="2">EDUCATION</text><rect x="92" y="146" width="1016" height="1" fill="#D9DEE8"/><rect x="96" y="176" width="460" height="34" rx="7" fill="#1C1F26"/><rect x="96" y="224" width="426" height="14" rx="6" fill="#5A6473"/><rect x="96" y="248" width="392" height="14" rx="6" fill="#5A6473"/><rect x="96" y="284" width="130" height="36" rx="8" fill="#162A4F"/><rect x="624" y="176" width="472" height="192" rx="10" fill="#F8FAFD" stroke="#D9DEE8"/><rect x="644" y="198" width="200" height="12" rx="6" fill="#162A4F"/><rect x="644" y="220" width="310" height="8" rx="4" fill="#6A7383"/><rect x="644" y="238" width="274" height="8" rx="4" fill="#6A7383"/><rect x="644" y="268" width="120" height="30" rx="7" fill="#F25A2B"/><rect x="624" y="388" width="472" height="206" rx="10" fill="#FFFFFF" stroke="#D9DEE8"/><rect x="96" y="348" width="360" height="12" rx="6" fill="#1C1F26"/><rect x="96" y="372" width="342" height="12" rx="6" fill="#5A6473"/><rect x="96" y="396" width="324" height="12" rx="6" fill="#5A6473"/><rect x="96" y="420" width="306" height="12" rx="6" fill="#5A6473"/><rect x="96" y="444" width="288" height="12" rx="6" fill="#5A6473"/></svg>